<?xml version="1.0" standalone="yes"?>
<svg width="30" height="31">
<path style="fill:#000000; stroke:none;" d="M0 0L0 31L30 31L30 0L0 0z"/>
<path style="fill:#8f8f8f; stroke:none;" d="M5.33333 3.66667C5.27777 3.72223 5.22223 4.77777 5.66667 4.33333C5.72222 4.27778 5.77778 3.22222 5.33333 3.66667z"/>
<path style="fill:#ffffff; stroke:none;" d="M6 3L8 8L3 6C3.79092 13.0767 8.37259 12.895 12.9414 17.1474C17.8759 21.7402 17.2915 26.749 25 27L22 23L23 22L27 25C26.749 17.2915 21.7402 17.8759 17.1474 12.9414C12.895 8.37259 13.0767 3.79092 6 3z"/>
<path style="fill:#c5c5c5; stroke:none;" d="M10 3L11 4L10 3z"/>
<path style="fill:#2e2e2e; stroke:none;" d="M12 4L13 5L12 4z"/>
<path style="fill:#878787; stroke:none;" d="M3.66667 5.33333C3.22222 5.77778 4.27778 5.72222 4.33333 5.66667C4.77777 5.22223 3.72222 5.27778 3.66667 5.33333z"/>
<path style="fill:#000000; stroke:none;" d="M5 5C5.54505 6.63516 5.36484 6.45495 7 7C6.45495 5.36484 6.63516 5.54505 5 5z"/>
<path style="fill:#a3a3a3; stroke:none;" d="M6 5L7 6L6 5z"/>
<path style="fill:#2c2c2c; stroke:none;" d="M13 5L14 6L13 5z"/>
<path style="fill:#a3a3a3; stroke:none;" d="M5 6L6 7L5 6M7 6L8 7L7 6z"/>
<path style="fill:#9e9e9e; stroke:none;" d="M6 7L7 8L6 7z"/>
<path style="fill:#313131; stroke:none;" d="M7 7L8 8L7 7z"/>
<path style="fill:#c6c6c6; stroke:none;" d="M3 10L4 11L3 10z"/>
<path style="fill:#9f9f9f; stroke:none;" d="M14 10L15 11L14 10z"/>
<path style="fill:#353535; stroke:none;" d="M3 11L4 12L3 11z"/>
<path style="fill:#a4a4a4; stroke:none;" d="M15 11L16 12L15 11z"/>
<path style="fill:#3a3a3a; stroke:none;" d="M4 12L5 13L4 12z"/>
<path style="fill:#a8a8a8; stroke:none;" d="M16 12L17 13L16 12M17 13L18 14L17 13z"/>
<path style="fill:#c4c4c4; stroke:none;" d="M10 14L11 15L10 14z"/>
<path style="fill:#a6a6a6; stroke:none;" d="M18 14L19 15L18 14z"/>
<path style="fill:#c7c7c7; stroke:none;" d="M11 15L12 16L11 15z"/>
<path style="fill:#a2a2a2; stroke:none;" d="M19 15L20 16L19 15z"/>
<path style="fill:#c9c9c9; stroke:none;" d="M12 16L13 17L12 16z"/>
<path style="fill:#bdbdbd; stroke:none;" d="M20 16C21.2484 16.6848 21.5484 16.7488 23 17C21.7516 16.3152 21.4516 16.2512 20 16z"/>
<path style="fill:#838383; stroke:none;" d="M23 16L24 17L23 16z"/>
<path style="fill:#c9c9c9; stroke:none;" d="M13 17L14 18L13 17z"/>
<path style="fill:#2e2e2e; stroke:none;" d="M25 17L26 18L25 17z"/>
<path style="fill:#c9c9c9; stroke:none;" d="M14 18L15 19L14 18z"/>
<path style="fill:#383838; stroke:none;" d="M26 18L27 19L26 18z"/>
<path style="fill:#c7c7c7; stroke:none;" d="M15 19L16 20L15 19z"/>
<path style="fill:#b9b9b9; stroke:none;" d="M16 20L16 23C16.6961 21.4463 16.6961 21.5537 16 20z"/>
<path style="fill:#afafaf; stroke:none;" d="M23 22L24 23L23 22z"/>
<path style="fill:#868686; stroke:none;" d="M16 23L17 24L16 23z"/>
<path style="fill:#ababab; stroke:none;" d="M22 23L23 24L22 23z"/>
<path style="fill:#000000; stroke:none;" d="M23 23C23.5451 24.6352 23.3648 24.4549 25 25C24.4549 23.3648 24.6352 23.5451 23 23z"/>
<path style="fill:#a9a9a9; stroke:none;" d="M24 23L25 24L24 23z"/>
<path style="fill:#a4a4a4; stroke:none;" d="M23 24L24 25L23 24z"/>
<path style="fill:#969696; stroke:none;" d="M25 24L26 25L25 24z"/>
<path style="fill:#3a3a3a; stroke:none;" d="M17 25L18 26L17 25z"/>
<path style="fill:#8b8b8b; stroke:none;" d="M24 25L25 26L24 25z"/>
<path style="fill:#353535; stroke:none;" d="M18 26L19 27L18 26z"/>
<path style="fill:#666666; stroke:none;" d="M19 27L20 28L19 27z"/>
<path style="fill:#e8e8e8; stroke:none;" d="M20 27C21.769 27.7789 23.0359 27.9124 25 28C23.231 27.2211 21.9641 27.0876 20 27z"/>
</svg>
